<svg width="50" height="50" viewBox="0 0 50 50" fill="none" xmlns="http://www.w3.org/2000/svg">
<path d="M19.617 9.91389C23.483 8.92184 27.1303 8.3091 31.0401 9.51998C32.8637 10.089 34.5268 11.1539 35.9128 12.4669C40.4791 16.7415 42.3027 23.9192 40.7271 29.9299C38.8743 36.9909 31.0401 40.6673 24.1979 40.6819C16.8305 40.6965 10.7761 35.9843 9.20051 28.7336C7.6249 21.4829 10.3822 13.6049 17.1806 10.6142C18.2456 10.1473 17.3265 8.5717 16.2615 9.03855C9.63817 11.9417 6.60368 19.3675 7.04135 26.2826C7.55196 34.3065 13.1249 41.0758 21.1926 42.2721C28.2536 43.3225 37.1674 40.4922 40.9606 34.1023C44.7537 27.7124 43.3385 18.6818 38.9327 13.0651C37.2404 10.9059 35.0083 9.0969 32.4406 8.07567C28.0202 6.31042 23.5852 6.9961 19.121 8.14862C17.983 8.4404 18.4645 10.2057 19.6024 9.91389H19.617Z" fill="url(#paint0_linear_1605_57102)"/>
<path d="M23.3669 18.0106L23.1918 22.1684L23.1043 24.2546C23.0751 24.9403 23.0167 25.626 23.3085 26.2533C23.5565 26.7931 23.9942 27.187 24.4173 27.6101L25.9053 29.069L28.9836 32.0743C29.8298 32.8913 31.1136 31.6074 30.2674 30.7905L27.4663 28.0477L26.1679 26.7639C25.8032 26.3992 25.2197 26.0053 24.9862 25.5384C24.7528 25.0716 24.9279 24.2546 24.9425 23.7294L25.0154 21.9058L25.1759 18.0106C25.2197 16.8435 23.396 16.8435 23.3523 18.0106H23.3669Z" fill="url(#paint1_linear_1605_57102)"/>
<defs>
<linearGradient id="paint0_linear_1605_57102" x1="43.1543" y1="24.743" x2="7" y2="24.743" gradientUnits="userSpaceOnUse">
<stop stop-color="#152964"/>
<stop offset="1" stop-color="#00529D"/>
</linearGradient>
<linearGradient id="paint1_linear_1605_57102" x1="30.5445" y1="24.7356" x2="23.0791" y2="24.7356" gradientUnits="userSpaceOnUse">
<stop stop-color="#152964"/>
<stop offset="1" stop-color="#00529D"/>
</linearGradient>
</defs>
</svg>
