<svg width="36" height="33" viewBox="0 0 36 33" fill="none" xmlns="http://www.w3.org/2000/svg">
<path d="M15.9997 15.4643C15.9781 18.5836 13.4669 21.0786 10.3729 21.0546C7.27222 21.0297 4.77512 18.5098 4.79999 15.4286C4.82486 12.3308 7.3485 9.83168 10.4293 9.8549C13.5183 9.87811 16.0212 12.398 15.9997 15.4643ZM5.81475 15.4551C5.81309 17.9792 7.86085 20.0413 10.3729 20.0463C12.9247 20.0504 14.9816 18.0115 14.9882 15.4701C14.9949 12.9278 12.9421 10.8715 10.3978 10.8706C7.86583 10.8706 5.81641 12.9204 5.81475 15.4551Z" fill="white"/>
<path d="M10.3854 32.2538C7.14848 32.2538 3.9124 32.2538 0.675465 32.2538C0.183833 32.2538 0.00234749 32.0719 0.00490363 31.5678C0.010868 30.4429 -0.0257698 29.3146 0.0398379 28.1933C0.166793 26.0142 1.07508 24.2166 2.67522 22.8031C3.76584 21.8398 5.03369 21.273 6.45235 21.0611C6.68326 21.0267 6.8443 21.1353 7.00107 21.2862C7.72105 21.9793 8.56117 22.4287 9.53336 22.5947C11.1224 22.8667 12.5326 22.4543 13.7348 21.3445C13.9964 21.1026 14.2452 21.0205 14.5817 21.0929C17.6824 21.7621 19.683 23.6639 20.5665 26.8177C20.7514 27.4781 20.8 28.1606 20.8 28.8475C20.8 29.7446 20.8 30.6425 20.8 31.5395C20.8 32.0861 20.6381 32.2547 20.1175 32.2547C16.8738 32.2547 13.63 32.2547 10.3863 32.2547L10.3854 32.2538ZM19.7596 31.1758C19.7596 30.7467 19.7682 30.3423 19.7579 29.9388C19.7383 29.1972 19.7673 28.4476 19.6702 27.7165C19.3072 24.9777 17.2197 22.7236 14.609 22.2036C14.5093 22.1842 14.367 22.2239 14.2878 22.2919C11.9873 24.2519 8.8219 24.2502 6.51115 22.2883C6.43616 22.2248 6.30325 22.1824 6.20952 22.2001C3.35686 22.7316 1.10064 25.4836 1.05378 28.4882C1.04099 29.3269 1.04866 30.1648 1.04866 31.0036C1.04866 31.0592 1.06059 31.1148 1.06826 31.1758H19.7605H19.7596Z" fill="white"/>
<path d="M35.5522 15.0248C35.1849 14.6768 34.9355 14.2666 34.8095 13.8041C35.0159 13.354 35.1202 12.8762 35.1202 12.3813V9.53617C35.1202 8.31422 34.4771 7.24273 33.5139 6.63297V4.78589C33.5139 2.1469 31.367 0 28.7281 0H23.5078C20.8688 0 18.7221 2.1469 18.7221 4.78589V8.88013C18.7221 9.58808 18.8756 10.2711 19.1786 10.9125C18.9951 11.6315 18.6155 12.2672 18.049 12.8037L17.6006 13.2285L18.1841 13.4301C18.5649 13.5618 18.9695 13.6287 19.3866 13.6287C20.0259 13.6287 20.6977 13.4745 21.3854 13.17C22.0422 13.4949 22.7721 13.6658 23.508 13.6658H24.8694C25.3794 14.9268 26.6115 15.8212 28.0536 15.8212H31.6805C32.1916 15.8212 32.6984 15.7065 33.1579 15.4882C33.6339 15.6922 34.0995 15.7957 34.545 15.7957C34.8472 15.7957 35.1409 15.7471 35.4171 15.6516L36.0006 15.4498L35.5522 15.0248ZM21.5749 12.4234L21.4068 12.3316L21.2339 12.4141C20.4496 12.7881 19.7023 12.9388 19.0195 12.8567C19.4754 12.2938 19.7842 11.6544 19.9401 10.9489L19.969 10.8181L19.9085 10.6985C19.6188 10.127 19.4717 9.51537 19.4717 8.87975V4.78589C19.4717 2.56028 21.2824 0.749552 23.5078 0.749552H28.7281C30.9537 0.749552 32.7644 2.56028 32.7644 4.78589V8.87994C32.7644 11.1054 30.9537 12.9159 28.7281 12.9159H23.5078C22.8332 12.9157 22.1648 12.7456 21.5749 12.4234ZM34.5448 15.0456C34.1587 15.0456 33.7433 14.9404 33.3095 14.7338L33.1365 14.6513L32.9685 14.7431C32.5753 14.9579 32.1299 15.0712 31.6804 15.0712H28.0535C27.0354 15.0712 26.1498 14.5018 25.6935 13.6655H28.7281C31.367 13.6655 33.5139 11.5187 33.5139 8.87994V7.57216C34.0403 8.06312 34.3707 8.76114 34.3707 9.53599V12.3811C34.3707 12.8042 34.2727 13.2118 34.0793 13.5927L34.0186 13.7123L34.0474 13.8433C34.1441 14.2808 34.3225 14.683 34.5798 15.045C34.5682 15.0452 34.5566 15.0456 34.5448 15.0456Z" fill="white"/>
</svg>
