<svg width="50" height="50" viewBox="0 0 50 50" fill="none" xmlns="http://www.w3.org/2000/svg">
<path d="M46.3632 12.9763C46.2027 10.8463 45.342 10.0877 43.2412 9.83967C39.9295 9.44577 36.5886 9.38741 33.2624 9.63542C32.0952 9.72295 32.0952 11.5466 33.2624 11.459C36.399 11.2256 39.5356 11.2548 42.6576 11.6049C43.4746 11.6925 44.2332 11.6049 44.4958 12.4803C44.5834 12.7574 44.5542 13.1222 44.5688 13.4139C44.6125 14.3768 44.6271 15.3543 44.6271 16.3317C44.6271 19.5851 44.4375 22.8384 44.4229 26.0917C44.4229 29.9578 44.4666 33.8238 44.3353 37.6899C44.3062 38.3172 44.2916 38.9445 44.2332 39.5719C44.1019 40.7681 43.0661 40.987 41.9428 41.0599C39.0104 41.2496 35.9613 41.1329 33.0144 41.0599C32.6059 41.0599 32.3433 41.2788 32.212 41.5705C32.2849 29.5201 32.4308 17.4551 32.0661 5.40464C32.0515 4.87944 31.6576 4.5439 31.1616 4.50013C27.6602 4.17917 24.1589 4.09164 20.643 4.07705C19.4613 4.07705 17.5793 3.82904 16.1933 4.22294C15.9307 4.19376 15.6536 4.28129 15.4201 4.45636C15.3472 4.51472 15.2888 4.55848 15.2305 4.61684C15.2013 4.64602 15.1721 4.6606 15.1429 4.68978C13.3777 6.10491 11.875 7.73886 10.4745 9.5333C9.00102 11.4153 7.44 13.1513 5.55803 14.6394C5.44132 14.7269 5.38296 14.8437 5.3392 14.975C4.37633 15.6461 4.05537 16.784 3.98243 18.2137C3.74901 22.5028 3.79277 26.8649 3.83654 31.1686C3.88031 35.9684 4.36174 40.7973 4.05538 45.5971C4.0262 46.1223 4.50763 46.4724 4.95988 46.5016C9.10313 46.8225 13.3485 46.5162 17.4918 46.5016C20.1907 46.5016 22.9042 46.487 25.6032 46.5308C27.3976 46.5599 29.2796 46.5016 31.0449 46.8225C31.6138 46.9247 32.1974 46.5745 32.1974 45.9472C32.1974 44.7509 32.1974 43.54 32.212 42.3437C32.3287 42.6501 32.5913 42.8835 33.0144 42.8981C35.8008 42.9565 38.6165 42.9419 41.403 42.8981C43.1537 42.869 45.4441 42.6793 45.9109 40.6514C46.4945 38.1276 46.2173 35.239 46.2319 32.6859C46.2465 29.0824 46.2173 25.479 46.2903 21.8755C46.3486 18.914 46.5966 15.9524 46.3778 12.9909L46.3632 12.9763ZM11.7437 10.8171C12.6336 9.67919 13.5528 8.62879 14.5594 7.63674C14.5594 7.98688 14.5886 8.32242 14.5886 8.65797C14.6177 10.4086 14.6615 12.1593 14.6907 13.91C13.5382 14.0267 12.4002 14.1434 11.2477 14.2163C10.387 14.2747 9.52621 14.2455 8.66547 14.2601C9.75963 13.1805 10.7809 12.028 11.7291 10.8025L11.7437 10.8171ZM17.8857 44.678C13.9175 44.678 9.84717 44.9552 5.87899 44.7217C6.03947 41.0307 5.76228 37.3252 5.67475 33.6342C5.58721 29.6368 5.63097 25.6249 5.70392 21.6275C5.7331 20.2853 5.61639 18.841 5.83522 17.4988C6.01029 16.4047 6.50631 16.2588 7.54212 16.1567C10.2119 15.8941 12.94 15.8795 15.639 15.6461C16.1204 15.6023 16.5581 15.2667 16.5435 14.7415C16.5143 13.1659 16.4851 11.5903 16.4559 10.0147C16.4268 8.8768 16.0475 7.11154 16.4559 6.00279C16.9228 5.78395 18.2796 5.91525 18.7464 5.90066C19.6947 5.87149 20.643 5.88608 21.5912 5.90066C24.4798 5.92984 27.3684 6.03196 30.2425 6.26539C30.6072 19.1328 30.4175 32.0294 30.3592 44.8968C26.2889 44.3424 21.9414 44.6634 17.8857 44.678Z" fill="url(#paint0_linear_1605_57105)"/>
<path d="M40.4986 33.5468C38.1206 33.6198 35.7572 33.5906 33.3792 33.4447C32.2121 33.3718 32.2121 35.1954 33.3792 35.2683C36.0344 35.4434 38.7042 35.4726 41.374 35.3705C41.8846 35.3559 42.2639 34.962 42.2785 34.4659C42.4681 28.1198 42.9058 21.8028 42.4827 15.442C42.4535 14.9314 42.0888 14.5667 41.5782 14.5375C38.9376 14.377 36.2824 14.3478 33.6272 14.4645C32.4601 14.5229 32.4455 16.3465 33.6272 16.2882C35.9761 16.186 38.3395 16.2152 40.6883 16.3319C40.9947 22.08 40.6737 27.828 40.484 33.576L40.4986 33.5468Z" fill="url(#paint1_linear_1605_57105)"/>
<path d="M36.0341 37.3982C35.7861 37.6899 35.4359 38.5215 36.4426 39.0905C36.7927 39.2801 37.2595 39.1196 37.5805 38.8862C37.8431 38.6966 38.0474 38.4194 38.0328 38.113C38.0328 37.9379 37.9598 37.7629 37.8431 37.6316C37.6097 37.3106 37.1866 37.121 36.7781 37.1356L36.0341 37.4127V37.3982Z" fill="url(#paint2_linear_1605_57105)"/>
<path d="M21.4016 21.584C19.4612 21.6861 17.5063 21.657 15.566 21.5111C15.0846 21.4819 14.6323 21.9487 14.6615 22.4156C14.6907 22.9408 15.0554 23.2909 15.566 23.3201C16.31 23.3784 17.0541 23.393 17.7835 23.4222C17.7835 23.4514 17.7835 23.4806 17.7835 23.5243C17.7835 23.9766 17.7835 24.4434 17.7835 24.8957C17.7835 25.3771 17.7981 25.8586 17.7835 26.34C17.7835 26.5442 17.7835 26.7485 17.7543 26.9527V26.9965C17.7543 26.9965 17.7252 27.1278 17.7106 27.1861C17.5793 27.6384 17.8711 28.1928 18.3525 28.3095C18.8339 28.4262 19.3299 28.1636 19.4758 27.6676C19.5925 27.2737 19.6071 26.836 19.6217 26.4275C19.6217 25.9461 19.6217 25.4792 19.6217 24.9978C19.6217 24.531 19.6071 24.0641 19.6217 23.5973C19.6217 23.5389 19.6217 23.4806 19.6217 23.4222C20.2199 23.4222 20.8034 23.4222 21.4016 23.393C21.883 23.3639 22.3353 22.9845 22.3061 22.4885C22.2915 22.0217 21.8976 21.5548 21.4016 21.584V21.584Z" fill="url(#paint3_linear_1605_57105)"/>
<defs>
<linearGradient id="paint0_linear_1605_57105" x1="46.4664" y1="25.42" x2="3.80176" y2="25.42" gradientUnits="userSpaceOnUse">
<stop stop-color="#152964"/>
<stop offset="1" stop-color="#00529D"/>
</linearGradient>
<linearGradient id="paint1_linear_1605_57105" x1="42.6611" y1="24.9114" x2="32.5039" y2="24.9114" gradientUnits="userSpaceOnUse">
<stop stop-color="#152964"/>
<stop offset="1" stop-color="#00529D"/>
</linearGradient>
<linearGradient id="paint2_linear_1605_57105" x1="38.0335" y1="38.1545" x2="35.7676" y2="38.1545" gradientUnits="userSpaceOnUse">
<stop stop-color="#152964"/>
<stop offset="1" stop-color="#00529D"/>
</linearGradient>
<linearGradient id="paint3_linear_1605_57105" x1="22.3074" y1="24.9234" x2="14.6602" y2="24.9234" gradientUnits="userSpaceOnUse">
<stop stop-color="#152964"/>
<stop offset="1" stop-color="#00529D"/>
</linearGradient>
</defs>
</svg>
