<svg version="1.2" xmlns="http://www.w3.org/2000/svg" viewBox="0 0 26 33" width="26" height="33">
	<title>Group 3973-1-svg</title>
	<style>
		.s0 { fill: none;stroke: #1d1d1b;stroke-miterlimit:10;stroke-width: 1.2 } 
		.s1 { fill: #1d1d1b;stroke: #1d1d1b;stroke-linecap: round;stroke-linejoin: round;stroke-width: 1.2 } 
		.s2 { fill: none;stroke: #1d1d1b;stroke-linecap: round;stroke-linejoin: round;stroke-width: 1.2 } 
		.s3 { fill: none;stroke: #edf7fe;stroke-linecap: round;stroke-linejoin: round;stroke-width: 1.2 } 
	</style>
	<path id="Layer" class="s0" d="m25 7.8v22.3c0 1.3-1.1 2.3-2.4 2.3h-19.2c-1.3 0-2.4-1.1-2.4-2.3v-26.8c0-1.3 1.1-2.3 2.4-2.3h14.8q0.4 0 0.6 0.3l5.9 5.9c0.2 0.1 0.3 0.4 0.3 0.6z"/>
	<path id="Layer" fill-rule="evenodd" class="s0" d="m25 8.4h-5.8c-0.9 0-1.6-0.7-1.6-1.4v-6"/>
	<path id="Layer" class="s1" d="m9.3 3.8h-4.6v20.3h4.6z"/>
	<path id="Layer" class="s1" d="m4.7 24.1l2.3 5.5 2.3-5.5z"/>
	<path id="Layer" fill-rule="evenodd" class="s2" d="m7.5 29.6h13.8"/>
	<path id="Layer" fill-rule="evenodd" class="s2" d="m12.1 26.8h9.2"/>
	<path id="Layer" fill-rule="evenodd" class="s2" d="m12.1 24.1h9.2"/>
	<path id="Layer" fill-rule="evenodd" class="s3" d="m4.7 24.1h4.6"/>
</svg>